<svg fill="#000000" width="800px" height="800px" viewBox="0 0 32 32" version="1.1" xmlns="http://www.w3.org/2000/svg">
<title>hosting-server</title>
<path d="M2.161 21.516c0.8-0.010 1.593-0.022 2.385-0.022 0.793 0 1.587 0.012 2.385 0.022v-2.358c-0.799-0.010-1.591-0.021-2.385-0.021s-1.587 0.012-2.385 0.021v2.358zM27.454 21.516c0.8-0.010 1.593-0.022 2.385-0.022 0.793 0 1.587 0.012 2.385 0.022v-2.358c-0.799-0.010-1.591-0.021-2.385-0.021s-1.587 0.012-2.385 0.021v2.358zM2.161 16.773c0.8-0.010 1.593-0.021 2.385-0.021 0.793 0 1.587 0.012 2.385 0.021v-2.358c-0.799-0.010-1.591-0.021-2.385-0.021s-1.587 0.012-2.385 0.021v2.358zM27.454 16.773c0.8-0.010 1.593-0.021 2.385-0.021 0.793 0 1.587 0.012 2.385 0.021v-2.358c-0.799-0.010-1.591-0.021-2.385-0.021s-1.587 0.012-2.385 0.021v2.358zM2.161 12.030c0.8-0.010 1.593-0.021 2.385-0.021 0.793 0 1.587 0.012 2.385 0.021v-2.358c-0.799-0.010-1.591-0.021-2.385-0.021s-1.587 0.012-2.385 0.021v2.358zM27.454 12.030c0.8-0.010 1.593-0.021 2.385-0.021 0.793 0 1.587 0.012 2.385 0.021v-2.358c-0.799-0.010-1.591-0.021-2.385-0.021s-1.587 0.012-2.385 0.021v2.358zM0 29.633h32v-27.266h-32v27.266zM1.067 3.434h29.867v25.133h-29.867v-25.133zM23.161 21.516c0.8-0.010 1.593-0.022 2.385-0.022s1.587 0.012 2.385 0.022v-2.358c-0.799-0.010-1.591-0.021-2.385-0.021s-1.587 0.012-2.385 0.021v2.358zM8.454 21.516c0.8-0.010 1.593-0.022 2.385-0.022s1.587 0.012 2.385 0.022v-2.358c-0.799-0.010-1.591-0.021-2.385-0.021s-1.587 0.012-2.385 0.021v2.358zM23.161 16.773c0.8-0.010 1.593-0.021 2.385-0.021s1.587 0.012 2.385 0.021v-2.358c-0.799-0.010-1.591-0.021-2.385-0.021s-1.587 0.012-2.385 0.021v2.358zM8.454 16.773c0.8-0.010 1.593-0.021 2.385-0.021s1.587 0.012 2.385 0.021v-2.358c-0.799-0.010-1.591-0.021-2.385-0.021s-1.587 0.012-2.385 0.021v2.358zM23.161 12.030c0.8-0.010 1.593-0.021 2.385-0.021s1.587 0.012 2.385 0.021v-2.358c-0.799-0.010-1.591-0.021-2.385-0.021s-1.587 0.012-2.385 0.021v2.358zM8.454 12.030c0.8-0.010 1.593-0.021 2.385-0.021s1.587 0.012 2.385 0.021v-2.358c-0.799-0.010-1.591-0.021-2.385-0.021s-1.587 0.012-2.385 0.021v2.358zM2.161 7.287c0.8-0.010 1.593-0.021 2.385-0.021 0.793 0 1.587 0.012 2.385 0.021v-2.358c-0.799-0.010-1.591-0.021-2.385-0.021s-1.587 0.012-2.385 0.021v2.358zM27.454 7.287c0.8-0.010 1.593-0.021 2.385-0.021 0.793 0 1.587 0.012 2.385 0.021v-2.358c-0.799-0.010-1.591-0.021-2.385-0.021s-1.587 0.012-2.385 0.021v2.358zM23.161 7.287c0.8-0.010 1.593-0.021 2.385-0.021s1.587 0.012 2.385 0.021v-2.358c-0.799-0.010-1.591-0.021-2.385-0.021s-1.587 0.012-2.385 0.021v2.358zM8.454 7.287c0.8-0.010 1.593-0.021 2.385-0.021s1.587 0.012 2.385 0.021v-2.358c-0.799-0.010-1.591-0.021-2.385-0.021s-1.587 0.012-2.385 0.021v2.358zM13.807 21.516c0.8-0.010 1.593-0.022 2.385-0.022s1.587 0.012 2.385 0.022v-2.358c-0.799-0.010-1.591-0.021-2.385-0.021s-1.587 0.012-2.385 0.021v2.358zM13.807 16.773c0.8-0.010 1.593-0.021 2.385-0.021s1.587 0.012 2.385 0.021v-2.358c-0.799-0.010-1.591-0.021-2.385-0.021s-1.587 0.012-2.385 0.021v2.358zM13.807 12.030c0.8-0.010 1.593-0.021 2.385-0.021s1.587 0.012 2.385 0.021v-2.358c-0.799-0.010-1.591-0.021-2.385-0.021s-1.587 0.012-2.385 0.021v2.358zM13.807 7.287c0.8-0.010 1.593-0.021 2.385-0.021s1.587 0.012 2.385 0.021v-2.358c-0.799-0.010-1.591-0.021-2.385-0.021s-1.587 0.012-2.385 0.021v2.358zM2.161 26.259c0.8-0.010 1.593-0.021 2.385-0.021 0.793 0 1.587 0.012 2.385 0.021v-2.358c-0.799-0.010-1.591-0.021-2.385-0.021s-1.587 0.012-2.385 0.021v2.358zM27.454 26.259c0.8-0.010 1.593-0.021 2.385-0.021 0.793 0 1.587 0.012 2.385 0.021v-2.358c-0.799-0.010-1.591-0.021-2.385-0.021s-1.587 0.012-2.385 0.021v2.358zM23.161 26.259c0.8-0.010 1.593-0.021 2.385-0.021s1.587 0.012 2.385 0.021v-2.358c-0.799-0.010-1.591-0.021-2.385-0.021s-1.587 0.012-2.385 0.021v2.358zM8.454 26.259c0.8-0.010 1.593-0.021 2.385-0.021s1.587 0.012 2.385 0.021v-2.358c-0.799-0.010-1.591-0.021-2.385-0.021s-1.587 0.012-2.385 0.021v2.358zM13.807 26.259c0.8-0.010 1.593-0.021 2.385-0.021s1.587 0.012 2.385 0.021v-2.358c-0.799-0.010-1.591-0.021-2.385-0.021s-1.587 0.012-2.385 0.021v2.358zM20.776 2.367h-9.552v-2.367h9.552v2.367z"></path>
</svg>
